<svg id="Layer_1" enable-background="new 0 0 512 512" height="512" viewBox="0 0 512 512" width="512" xmlns="http://www.w3.org/2000/svg"><g><g><g><path d="m460.706 471.914h-409.412v-222.267c0-12.131 9.834-21.966 21.966-21.966h365.48c12.131 0 21.966 9.834 21.966 21.966z" fill="#6967bf"/><path d="m438.74 227.681h-41.207c12.131 0 21.966 9.834 21.966 21.966v222.267h41.207v-222.267c0-12.131-9.835-21.966-21.966-21.966z" fill="#5b59b2"/><path d="m490.034 512h-468.068c-12.132 0-21.966-9.834-21.966-21.966v-18.121h512v18.121c0 12.132-9.834 21.966-21.966 21.966z" fill="#7776d0"/><path d="m470.793 471.914v18.121c0 12.131-9.834 21.966-21.966 21.966h41.207c12.131 0 21.966-9.834 21.966-21.966v-18.121z" fill="#6967bf"/><path d="m87.831 264.289h336.338v207.625h-336.338z" fill="#d9ddff"/></g><path d="m336.746 24.834c-65.724-44.603-155.155-27.491-199.75 38.221s-27.466 155.14 38.257 199.743c18.714 12.7 39.352 20.39 60.328 23.385l20.241 31.245 21.29-31.371c38.397-5.702 74.378-26.831 97.891-61.48 44.596-65.712 27.467-155.14-38.257-199.743z" fill="#ffd54d"/><path d="m336.746 24.834c-30.889-20.963-67.016-28.293-101.263-23.353 20.883 3.023 41.422 10.707 60.056 23.353 65.724 44.603 82.853 134.031 38.257 199.743-23.514 34.648-59.495 55.778-97.891 61.48l-.207.306 20.125 31.066 21.29-31.371c38.397-5.702 74.378-26.831 97.891-61.48 44.595-65.713 27.466-155.141-38.258-199.744z" fill="#ffc919"/></g><g fill="#fff"><g><path d="m256 230.563c-10.534 0-19.073-8.539-19.073-19.073v-62.505c0-10.534 8.539-19.073 19.073-19.073 10.534 0 19.073 8.539 19.073 19.073v62.505c0 10.533-8.539 19.073-19.073 19.073z"/><path d="m256 101.936c-10.534 0-19.073-8.539-19.073-19.073 0-10.534 8.539-19.073 19.073-19.073 10.534 0 19.073 8.539 19.073 19.073 0 10.533-8.539 19.073-19.073 19.073z"/></g><g><path d="m134.274 334.516h57.474c4.267 0 7.726-3.459 7.726-7.726s-3.459-7.726-7.726-7.726h-57.474c-4.267 0-7.726 3.459-7.726 7.726-.001 4.266 3.459 7.726 7.726 7.726z"/><path d="m320.253 334.516h57.474c4.267 0 7.726-3.459 7.726-7.726s-3.459-7.726-7.726-7.726h-57.474c-4.267 0-7.726 3.459-7.726 7.726-.001 4.266 3.458 7.726 7.726 7.726z"/><path d="m377.726 363.874h-243.452c-4.267 0-7.726 3.459-7.726 7.726s3.459 7.726 7.726 7.726h243.453c4.267 0 7.726-3.459 7.726-7.726s-3.46-7.726-7.727-7.726z"/><path d="m326.217 408.684h-140.434c-4.267 0-7.726 3.459-7.726 7.726s3.459 7.726 7.726 7.726h140.435c4.267 0 7.726-3.459 7.726-7.726s-3.46-7.726-7.727-7.726z"/></g></g></g></svg>